<?xml version="1.0" encoding="UTF-8"?>
<svg id="Layer_1" xmlns="http://www.w3.org/2000/svg" viewBox="0 0 3101.42 1080">
  <defs>
    <style>
      .cls-1 {
        fill: #f1f1f1;
      }

      .cls-2 {
        fill: #1f3458;
      }

      .cls-3 {
        fill: #3bc3ef;
      }

      .cls-4 {
        fill: #b56cab;
      }

      .cls-5 {
        fill: #f5999d;
      }
    </style>
  </defs>
  <path class="cls-2" d="M239.44,431.69c-21.52-28.47-37-59.68-43.4-95.05-3.43-18.96-5.62-37.94-1.34-57.05,3.58-15.96,11.33-23.23,24.12-22.92,11.55.28,19.01,7.73,21.76,24.03,3.44,20.36,5.49,40.95,11.95,60.73,5.36,16.43,11.15,32.62,22.97,45.77,2.29,2.55,4.73,5.18,7.61,6.96,4.37,2.71,9.75,8.23,14.17,4.28,4.26-3.82-2.45-7.79-4.55-11.4-12.06-20.75-6.66-45.74,13.59-61.28,19.07-14.63,44.32-12.32,61.27,5.61,15.77,16.69,16.25,43.82,1.03,62-2.58,3.08-5.43,5.93-9.35,10.17,22.58,2.73,42.3-5.57,64.2-5.38-12.19-15.78-19.8-31.47-14.74-50.76,5.47-20.85,18.42-34.73,39.3-38.99,22.27-4.54,42.17,1.36,55.85,20.75,12.61,17.86,13.58,36.87,2.73,56.14-7.11,12.64-6.99,13.02,7.38,14.22,15.18,1.27,29.99,6.68,47.09,3.99-11.02-10.73-19.47-22.23-20.43-37.38-.99-15.55,4.36-28.63,16.25-38.73,18.15-15.4,42.87-14.82,60.73,1.18,20.77,18.6,21.05,40.66.44,72.04,16.01-.48,25.48-9.97,33.16-21.69,12.37-18.88,18.29-40.29,22.81-62.06,2.87-13.84,4.22-28,7.28-41.79,2.55-11.53,9.65-19.02,22.6-18.72,12.08,1.25,17.65,9.31,20.98,19.85,4.13,13.1,1.87,26.58,2.58,39.89-4.57,44.18-21.01,83.47-48.78,118.08-3.83,2.46-6.76,5.16-2.55,9.73,9.31,10.11,10.29,21.98,7.34,34.68-3.84,6.19-7.62,12.89-14.56,15.67-9.65,3.87-9.02,9.95-6.5,18.14,3.69,11.98,6.3,24.29,9.37,36.47.57,13.08,4.88,25.44,7.3,38.17,6.2,32.63,19.05,62.43,38.99,89.08,0,0-.04-.06-.04-.06-.37,2.13-.12,3.96,2.28,4.76,0,0-.07-.15-.07-.15-.27,2.13.29,3.9,2.23,5.04,1.85,5.76,4.97,11.04,5.35,17.37.56,9.33-2.37,16.55-10.89,20.89-8.82,4.49-17.17,3.34-24.3-3.41-4.14-3.92-7.61-8.55-11.28-12.95-27.82-33.42-50.61-69.74-64.58-111.21-1.8-5.36-4.65-10.36-7.01-15.53-3.64-2.15-3.6-2.14-5.14,2.64-14.74,45.91-18.88,93.14-17.69,141.04-9.79,22.57-24.14,25.03-40.61,6.39-5.81,9.11-13.86,14.26-24.8,11.69-11.67-2.75-17.49-11.22-20.34-22.42-9.01-35.43-18.18-70.82-27.38-106.2-1.04-4-2.69-7.84-4.06-11.75-.82-3.32-1.4-6.74-2.53-9.95-1.71-4.82-1.76-12.95-6.93-12.98-5.42-.04-5.6,8.1-7.17,12.95-13.18,40.7-20.69,82.89-32.45,123.97-2.68,9.35-6.27,17.96-14.14,24.18-13.39,5.25-24.75,3.3-32.92-10.02-6.15,9.83-14.11,15.59-25.29,11.73-11.87-4.1-15.42-14.44-15.15-25.78,1.04-43.49-3.21-86.27-16.07-127.99-1.09-3.53-1.98-7.12-3.92-14.13-14.18,30.93-23.28,60.93-39.73,87.42-1.95,1.19-3.11,2.77-2.61,5.19,0,0,.06-.1.06-.1-11.94,15.29-23.89,30.56-35.8,45.87-6.34,8.14-13.61,14.6-24.79,14.35-18.87-8.55-22.62-18.82-13.65-37.4.17-.34.3-.72.52-1.02,38.92-54.34,47.25-119.12,62.26-181.64,1.3-5.41.29-8.11-4.77-10.58-11.08-5.38-17.32-14.62-19.08-26.82.59-7.96.26-16.48,6.38-22.59,6.79-6.77,3.7-11.05-2.51-15.24ZM277.71,452.69c-.17,1.46.58,2.24,1.92,2.58,1.93,1.11,3.75,2.51,5.81,3.28,8.32,3.1,13.29,8.65,13.78,17.77.52,9.84-3.59,18.98-12.36,21.26-16.87,4.4-16.75,17.12-18.26,29.78-.74,1.69-1.82,3.31-2.16,5.07-11.12,57.53-23.7,114.51-58.81,163.42-1.08,1.51-1.61,3.46-2.23,5.26-.87,2.5-1.97,5.1.68,7.3,6.67,9.18,12.26,4.4,17.22-1.66,26.44-32.28,51.57-65.33,64.2-106.05,3.03-9.77,6.61-19.6,12.58-28.08,3.41-4.85,7.12-10.38,14.51-9.19,6.88,1.1,10.11,5.99,12.24,12.17,4.95,14.36,8.48,29.07,11.46,43.93,3.91,16.29,6.15,32.79,6.53,49.57.39,17.19,1.13,34.37,1.75,51.56.15,4.09,1.48,7.62,5.85,8.79,4.2,1.13,7.58.11,8.88-4.61,4.78-11.36,1.54-23.41,2.88-35.11,2.63-22.87,4.38-46.18.04-68.86-10.47-54.65-4.31-108.34,6.42-162.02,1.85-9.25,6.97-11.11,14.82-8.02,6.72,2.65,12.97,6.56,20.91,7.41.63-9.69,3.17-21.23-6.62-26.07-15.35-7.59-30.54-17-48.96-16.35-10.73.38-21.5-.46-32.25-.38-34.83.24-57.67-16.84-71.17-48.21-11.49-26.7-15.95-55.01-20.14-83.42-.86-5.83-1.55-12.09-8.91-12.84-7.68-.78-9.9,5.76-10.76,11.2-3.04,19.33-3.21,38.65,3.6,57.44-.1,9.74,3.95,18.47,7.05,27.35,11.2,32.01,29.26,59.18,57.12,79.25l-.16-.29c-1.16,3.1.19,5.26,2.63,7.01l-.09-.22ZM674.06,676.09l2.37,3.4c2.05,2.78,4.11,5.55,6.16,8.33,1.92,3.58,3.9,7.11,7.65,9.17l-.05-.05c2.03,5.44,5.98,9.56,10.12,13.28,6.63,5.95,11.81,3.85,14.97-5.58-1.24-11.12-8.13-19.68-13.84-28.51-17.25-26.68-28.49-55.55-34.93-86.59-5.34-25.76-11.65-51.32-17.49-76.99-1.48-6.51-3.9-10.66-11.56-13.13-17.35-5.6-22.73-28.46-8.41-36.92,11.72-6.93,18.42-17.61,27.8-26.13,39.29-35.67,54.2-82.06,58.21-133.09.72-9.13-.41-18.39-4.47-26.87-1.73-3.61-4.59-6.28-9.12-5.49-3.07.54-5.91,1.47-6.51,5.3-3.49,22.05-9.62,43.63-11.68,65.94-4.26,5.1-4.65,11.75-7.02,17.61-10.76,26.62-26.13,48.31-56.66,54.25-22.46,3.36-45.44-.95-67.74,4.65-10.44,1.44-19.74,5.87-28.58,11.28-7.63,4.67-12.5,17.93-9.93,26.17,1.15,3.68,3.31,1.92,5.29.83,4.98-1.82,9.95-3.67,14.94-5.45,11.06-3.94,14.41-1.91,16.32,9.55,1.88,11.29,3.77,22.57,5.91,33.81,5.55,29.12,8.62,58.69,4.77,87.94-5.22,39.64-8.62,79.05-3.53,118.86,0,6.38-.98,12.95.24,19.09,1.47,7.42,5.42,13.01,13.96,6.1,4.48-4.71,3.36-10.71,3.48-16.28.58-26.71-.45-53.49,4.87-79.94,3.75-18.67,7.55-37.31,13.98-55.3,2.01-5.61,4.92-10.73,11.29-11.77,7-1.15,11.4,3.54,15.05,8.6,2.43,3.37,4.26,7.17,6.37,10.78,4.46,11.98,8.62,24.08,13.46,35.91,7.46,18.24,16.22,35.79,29.73,50.51l-.06-.07c.28,3.21,2.1,5.38,4.75,6.97,0,0-.12-.17-.12-.17ZM259.43,482.86l-.13-.08c10.22,9.26,23.43,6.93,27.44-4.86-.03-6.89-6.1-7.17-10.35-8.84-4.87-1.91-8.68-4.04-10.65-9.38-1.48-4.01-3.06-10.26-8.08-9.58-4.96.67-7.09,6.48-8.42,11.41-1.96,7.23-.36,13.52,5.37,18.56,1.01,1.98,2.36,3.35,4.83,2.77ZM441.3,325.96l.08-.11c-24.01,11.2-28.43,41.13-8.95,60.72,16.43,14.14,37.53,15.11,53.2,2.45,14.69-11.87,18.65-32.48,9.34-48.57-10.32-17.82-30.01-24.32-50.49-16.65-1.5.08-3.06.07-3.18,2.18ZM644.22,469.18c-6.24,1.27-12.55,3.72-10.15,11.29,2.24,7.08,8.41,9.86,16.03,6.84,18.35-3.19,26.66-16.44,18.99-30.46-1.63-2.97-3.53-7.03-7.06-6.69-2.14.2-4.59,3.82-5.73,6.42-2.54,5.79-5.47,10.85-12.07,12.61ZM353.6,337.81c-10.47-9.91-28.19-10.81-40.39-2.05-13.11,9.41-16.41,27.21-8.13,43.86,7.84,13.27,18.25,18.68,31.88,16.58,14.82-2.28,25.13-10.73,28.19-23.1,3.54-14.31-.89-27.84-11.56-35.29ZM563.68,387.06c16.74,14.08,37.39,12.99,49.28-3.15,8.69-11.8,9.54-25.06,2.92-37.89-6.76-13.11-18.89-17.19-32.99-15.74-11.81,1.21-21.2,5.9-24.13,18.73-7.88,12.08-6.17,25.32,4.92,38.05ZM517.12,472.01c-6.29,1.5-4.02,6.61-4.06,10.37-.4,35.35,4.51,70.22,10.25,104.95,4.58,27.7,10.05,55.26,15.12,82.88,3.44-12.97,1.38-25.85,3.44-38.62,7.18-44.4,10.75-88.87.96-133.41-.69-4.49-1.34-8.99-2.06-13.48q-3.43-21.37-23.66-12.69ZM432.56,409.52c-5.71.57-11.41,1.25-17.13,1.67-5.77.42-11.57.52-17.76,3.06,19.37,13.5,20.93,16.05,22.19,38.3,2,35.35-.4,70.47-5.22,105.52-6.84,49.74-18.13,98.61-27.66,147.84-1.3,6.73-4.8,14.16,1.19,20.71,7.82,5.46,13.58,3.98,16.93-5.24,2.73-7.51,4.37-15.43,6.43-23.18,10.11-38.05,19.91-76.19,30.48-114.11,2.61-9.36,5.96-20.67,18.48-20.49,11.77.17,14.91,10.95,17.66,20.01,5.88,19.37,10.82,39.03,16.36,58.51,7.8,27.45,12.33,55.8,22.65,82.57,2.8,4.67,6.48,7.81,12.13,5.1,5.12-2.45,6.81-7.42,6.07-12.54-.75-5.16-.78-10.65-3.74-15.33-5.91-31.16-12-62.29-17.7-93.49-9.1-49.79-16.53-99.7-13.73-150.67.98-17.92,2-34.77,24.1-43.01-32.31-8.51-62.24-2.61-91.73-5.22ZM377.81,673.51c2.02-.44,2.63-.45,2.67-.6,1.58-6.68,3.34-13.34,4.62-20.08,10.25-53.81,21.11-107.54,21.99-162.61.28-17.28-.87-18.72-16.75-23.12-4.46-1.24-7.02-.75-8.02,4.33-7.77,39.61-13.58,79.27-8.16,119.85,3.62,27.08,8.32,54.2,3.65,82.24Z"/>
  <g>
    <path class="cls-2" d="M2802.31,555.38c0-55.44.02-110.88-.02-166.32,0-8.87-.19-17.74-.35-26.61-.37-21.14,5.82-40.85,29.69-40.17,21.74.62,25.79,19.73,25.75,39.38-.21,102.63.17,205.26.35,307.89,0,1.27,0,2.54-.03,3.8-.53,16.25-4.6,30.53-22.91,34.66-18.44,4.16-27.79-7.56-35.51-21.71-33.29-61-66.63-121.97-100.03-182.9-5.72-10.43-11.83-20.65-24.83-29.45,0,56.2,0,112.4,0,168.6,0,11.4.78,22.89-.31,34.19-1.71,17.79-8.04,32.57-29.83,31.67-20.09-.83-24.88-15.33-25.41-31.51-.84-25.32-.43-50.67-.41-76.01.06-77.29.01-154.57.4-231.86.09-18.86-1.82-40.34,23.32-45.81,23.33-5.08,29.1,14.48,37.55,29.83,37.5,68.15,75.18,136.21,112.8,204.29,3.25-.65,6.51-1.31,9.76-1.96Z"/>
    <path class="cls-2" d="M1678.72,518.44c0-50.7.7-101.41-.25-152.09-.61-32.62,15.03-46.11,46.21-45.67,27.89.39,55.84-.9,83.68.37,55.33,2.52,98.15,36.41,111.7,86.8,13.3,49.45-7.96,100.41-57.87,127.99-19.21,10.61-18.95,17.67-8.27,33.58,21.14,31.48,40.39,64.22,60.77,96.22,11.06,17.37,13.25,33.97-6.35,45.73-19.08,11.46-30.89-1.79-40.2-16.37-26.55-41.57-53.87-82.74-78.33-125.52-11.1-19.42-25.87-23.02-44.09-19.36-21.21,4.27-11.28,22.56-11.85,34.54-1.43,30.35-.91,60.82-.34,91.23.36,19.55-3.12,38.18-26.04,38.54-24.99.4-29.03-19.14-28.88-40.1.35-51.96.12-103.93.12-155.89ZM1733.21,433.83q0,61.23,41.86,61.27c65.18.06,94.31-18.75,93.52-60.4-.74-39.15-29.85-58.73-88.73-58.23-56.24.48-45.61-6.2-46.65,57.35Z"/>
    <path class="cls-2" d="M2243.85,679.5c1.58,18.58-3.8,29.49-17.57,34.15-14.07,4.77-24.54-1.66-31.89-13.71-1.96-3.21-3.48-6.72-4.88-10.22-8.28-20.69-5.82-54.58-25.01-59.96-31.8-8.92-67.67-3.58-101.83-3.77-12.72-.07-15.91,9.45-18.91,19.91-5.22,18.17-10.33,36.62-18.25,53.66-5.52,11.88-17.15,19.58-31.57,14.17-13.01-4.88-20.73-14.73-18.6-29.48,1.07-7.4,3.49-14.64,5.71-21.82,31.69-102.48,63.24-205.01,95.42-307.35,5.49-17.45,8.69-39.08,34.96-37.65,23.18,1.27,26.35,20.43,31.59,37.15,31.7,101.15,63.27,202.35,94.81,303.55,2.62,8.42,4.79,16.98,6.02,21.37ZM2067.94,568.24h84.35c-14.06-43.93-27.01-84.41-42.51-132.84-15.64,49.66-28.69,91.08-41.84,132.84Z"/>
    <path class="cls-2" d="M2429.26,317.4c20.56.3,28.25,11.71,32.6,25.6,34.63,110.53,68.78,221.22,103.52,331.72,6.14,19.54-.38,33.58-18.28,39.19-17.41,5.46-31.95-5.61-33.32-22.16-5.65-68.51-50.09-68.93-103.28-67.68-32.66.77-43.49,12.32-51.02,40.29-5.98,22.22-7.67,59.24-43.38,48.06-35.95-11.26-15.3-41.63-8.35-64.2,30.75-99.88,62.34-199.5,93.17-299.36,5.19-16.8,11.39-31.02,28.33-31.45ZM2389.41,571.15c26.06,0,47.34.06,68.62-.03,7.52-.03,16.68.48,12.95-11.4-11.96-38.04-20.29-77.48-40.76-119.5-14.49,46.49-26.76,85.86-40.81,130.92Z"/>
    <path class="cls-2" d="M1100.5,517.09c0-49.38.22-98.76-.08-148.14-.2-32.55,13.69-49.16,48.02-48.44,49.35,1.03,98.75-.1,148.12.26,19.7.14,40.49,2.26,40.5,28.63.02,26.94-21.07,27.49-40.7,27.63-37.99.28-76,.88-113.98.11-18.52-.37-28.52,4.18-27.06,25.3,1.48,21.42,1.26,43.08.03,64.54-.99,17.32,6.72,21.46,22.25,20.91,24.04-.85,48.14-.51,72.2-.06,18.41.34,33.12,7.28,33.09,28.2-.03,21.79-15.73,26.35-33.94,26.34-20.27-.01-40.73,1.82-60.76-.37-28.04-3.07-33.4,9.25-33.22,34.63.55,77.82-.44,77.82,75.87,77.83,25.34,0,50.68-.22,76.01.15,19.13.28,31.88,8.52,31,29.56-.82,19.6-14.04,25.01-31.17,25-55.74-.01-111.48-.18-167.22.07-27.36.12-38.84-14.35-38.85-40.21-.02-50.65,0-101.3,0-151.94h-.12Z"/>
    <path class="cls-2" d="M1389.64,515.28c0-49.41.67-98.84-.24-148.23-.59-32.11,14.12-46.56,45.65-46.36,50.7.31,101.41-.07,152.11.15,20.21.09,39.86,3.01,39.41,29.55-.43,25.1-20.19,25.96-38.28,26.2-39.29.53-78.61.95-117.88-.08-19.6-.51-25.7,6.26-26.5,26.16-3.35,84.2-4.06,84.16,80.29,85.04,7.6.08,15.44-.84,22.75.71,14.88,3.14,25.87,11.38,25.16,28.28-.71,16.82-11.32,24.97-27.32,25.38-25.34.64-50.72,1.1-76.04.21-17.81-.63-23.56,5.96-24.77,24-5.92,88.23-6.48,88.18,80.66,88.19,24.08,0,48.18-.28,72.25.22,17.39.36,29.6,8.33,29.96,27.09.37,18.89-10.99,27.24-29.04,27.25-58.31.04-116.62.44-174.92-.33-26.36-.35-33.37-18.41-33.3-41.38.14-50.68.04-101.36.04-152.04Z"/>
    <path class="cls-2" d="M1048.66,480.79c0,45.54,3.12,91.35-.77,136.55-5.2,60.43-56.45,98.94-123.16,98.14-64.23-.78-110.7-41.08-117.24-100.67-2.19-19.92.78-37.23,23.15-40.35,20.33-2.84,27.48,12.34,31.74,30.13,10.52,43.86,33.61,60.66,74.85,56.2,37.98-4.11,57.24-27.04,57.48-70.62.42-75.95.13-151.89.04-227.84-.03-21.17.32-43.17,29-43.71,28.49-.54,25.95,21.57,25.96,40.72.01,40.49,0,80.97,0,121.46-.35,0-.71,0-1.06,0Z"/>
  </g>
  <path class="cls-5" d="M406.52,740.43c7.86-6.23,11.46-14.83,14.14-24.18,11.76-41.08,19.28-83.27,32.45-123.97,1.57-4.85,1.75-12.98,7.17-12.95,5.17.03,5.22,8.16,6.93,12.98,1.14,3.21,1.71,6.62,2.53,9.95-10.31-.22-12.33,7.79-14.24,15.12-5.8,22.25-5.73,45.37-9.5,67.93-2.59,15.54-6.39,30.75-16.11,43.65-5.78,7.67-12.9,13.09-23.37,11.47Z"/>
  <path class="cls-4" d="M586.93,724.55c-1.19-47.9,2.95-95.13,17.69-141.04,1.54-4.78,1.5-4.79,5.14-2.64-4.35,5.39-2.35,11.74-2.18,17.58,1,35.69-2.91,70.8-11.92,105.32-1.9,7.3-3.16,14.97-8.72,20.78Z"/>
  <path class="cls-4" d="M718.08,676.1c-19.94-26.66-32.79-56.45-38.99-89.08-2.42-12.72-6.72-25.09-7.3-38.17,15.36,40.54,30.74,81.09,46.01,121.68.62,1.66.21,3.71.27,5.57Z"/>
  <path class="cls-3" d="M210.29,726.98c11.18.26,18.46-6.21,24.79-14.35,11.91-15.3,23.87-30.58,35.8-45.87-5.48,23.16-13.24,45.25-33.55,59.88-8.33,6-17.94,8.42-27.04.33Z"/>
  <path class="cls-4" d="M727.48,316.09c-.72-13.3,1.54-26.79-2.58-39.89-3.32-10.55-8.89-18.61-20.98-19.85,8.98-8.95,15.99-8.31,22.74,2.09,6.44,9.92,5.56,21.08,5.18,32.07-.31,8.68-.95,17.39-4.35,25.59Z"/>
  <path class="cls-5" d="M683.48,478.58c2.95-12.7,1.97-24.57-7.34-34.68-4.21-4.57-1.28-7.27,2.55-9.73,17.25,10.32,19.16,28.03,4.79,44.41Z"/>
  <path class="cls-5" d="M239.44,431.69c6.2,4.19,9.3,8.47,2.51,15.24-6.12,6.1-5.79,14.63-6.38,22.59-3.33-4.63-4.53-16.6-2.72-25.28.86-4.12,3.64-10.36,6.59-12.55Z"/>
  <path class="cls-4" d="M722.47,685.7c-1.95-1.15-2.51-2.91-2.23-5.04,2.12,1.07,2.53,2.9,2.23,5.04Z"/>
  <path class="cls-4" d="M720.31,680.8c-2.4-.8-2.65-2.63-2.28-4.76,2.78.62,2.49,2.71,2.28,4.76Z"/>
  <path class="cls-3" d="M270.83,666.87c-.51-2.42.66-4,2.61-5.19-.08,2.12.12,4.39-2.61,5.19Z"/>
  <path class="cls-4" d="M551.86,418.67c22.3-5.6,45.28-1.29,67.74-4.65,9.43,7.96,18.43,7.5,29.75-3.55,19.15-18.7,30.07-41.84,33.94-68.31,2.06-22.3,8.19-43.89,11.68-65.94.6-3.83,3.44-4.76,6.51-5.3,4.53-.79,7.39,1.88,9.12,5.49,4.06,8.48,5.19,17.74,4.47,26.87-4.01,51.03-18.92,97.42-58.21,133.09-9.38,8.52-16.08,19.2-27.8,26.13-14.32,8.47-8.94,31.33,8.41,36.92,7.66,2.47,10.08,6.62,11.56,13.13,5.84,25.66,12.14,51.22,17.49,76.99,6.44,31.03,17.68,59.91,34.93,86.59,5.71,8.83,12.6,17.38,13.84,28.5-9.8,2.11-16.15-7-25.08-7.69,0,0,.05.05.05.05.41-5.53-3.38-7.55-7.65-9.17-2.05-2.78-4.11-5.55-6.16-8.33-.21-1.53-.18-3.24-2.37-3.4,0,0,.12.17.12.17.29-3.6.13-6.89-4.75-6.97,0,0,.06.07.06.07-.01-1.46.54-3.27-.12-4.33-14.95-24.18-25.45-50.5-36.97-76.33-1.13-2.53-1.86-6.2-6.1-5.76-2.1-3.61-3.93-7.41-6.37-10.78-3.65-5.07-8.05-9.76-15.05-8.6-6.37,1.05-9.28,6.16-11.29,11.77-6.43,17.99-10.23,36.63-13.98,55.3-5.32,26.44-4.29,53.23-4.87,79.94-.12,5.57,1,11.57-3.48,16.29-4.73-8.39-9.47-16.79-14.2-25.18-5.09-39.82-1.68-79.22,3.53-118.86,3.85-29.25.77-58.82-4.77-87.94-2.14-11.24-4.03-22.53-5.91-33.81-1.91-11.45-5.26-13.49-16.32-9.55-4.99,1.78-9.96,3.63-14.93,5.44,4.77-18.23,19.82-27.54,33.22-38.28Z"/>
  <path class="cls-3" d="M338.27,619.52c-2.98-14.86-6.51-29.57-11.46-43.93-2.13-6.18-5.36-11.07-12.24-12.17-7.38-1.18-11.09,4.34-14.51,9.19-5.97,8.48-9.55,18.31-12.58,28.08-12.63,40.72-37.76,73.77-64.2,106.05-4.97,6.06-10.55,10.84-17.22,1.66,40.7-53.5,62.17-113.63,62.52-181.04,1.52-12.66,1.39-25.37,18.26-29.78,8.77-2.29,12.89-11.42,12.36-21.26-.48-9.12-5.46-14.67-13.78-17.77-2.06-.77-3.88-2.17-5.81-3.27-.64-.86-1.28-1.72-1.92-2.58,0,0,.09.22.09.22-.12-2.62,1.1-5.74-2.63-7.01,0,0,.16.29.16.29.06-8.01-5.37-13.16-9.96-18.62-14.03-16.68-28.05-33.37-37.91-52.97-5.78-11.49-10.88-23.32-16.29-35-6.81-18.79-6.64-38.11-3.6-57.44.86-5.44,3.08-11.99,10.76-11.2,7.35.75,8.05,7.01,8.91,12.84,4.2,28.41,8.66,56.72,20.14,83.42,13.5,31.37,36.33,48.45,71.17,48.21,10.75-.07,21.52.76,32.25.38,18.42-.64,33.61,8.76,48.96,16.35,9.79,4.84,7.25,16.38,6.62,26.07-7.94-.86-14.19-4.77-20.91-7.41-7.85-3.09-12.97-1.23-14.82,8.02-10.73,53.68-16.89,107.37-6.42,162.02,4.35,22.68,2.59,45.99-.04,68.86-1.34,11.71,1.89,23.75-2.88,35.11-10.62-23.89-9.13-50.09-14.41-74.99-2.17-10.24-.98-21.59-8.61-30.32Z"/>
  <path class="cls-5" d="M517.15,724.67c-10.31-26.76-14.85-55.11-22.65-82.57-5.54-19.48-10.47-39.14-16.36-58.51-2.75-9.05-5.89-19.84-17.66-20.01-12.52-.18-15.87,11.13-18.48,20.49-10.56,37.92-20.37,76.06-30.48,114.11-2.06,7.75-3.7,15.67-6.43,23.18-3.35,9.22-9.11,10.7-16.93,5.24.39-4.56.22-9.26,1.25-13.68,11.26-48.37,22.44-96.76,30.21-145.84,6.22-39.33,10.98-78.75,6.03-118.73-1.66-13.43-4.33-27.51,6.91-38.86,29.48,2.61,59.41-3.29,91.73,5.22-22.11,8.24-23.12,25.09-24.1,43.01-2.79,50.96,4.63,100.87,13.73,150.67,5.7,31.2,11.79,62.33,17.7,93.49-1.29,9.83.13,21.38-14.46,22.77Z"/>
  <path class="cls-5" d="M444.48,323.78c20.48-7.66,40.17-1.17,50.49,16.65,9.32,16.09,5.35,36.7-9.34,48.57-15.67,12.66-36.77,11.69-53.2-2.45-.98-6.34-1.97-12.68-2.94-19.02-2.39-15.71,5.9-28.37,11.89-41.69,0,0-.08.11-.08.11,1.06-.73,2.12-1.45,3.18-2.18Z"/>
  <path class="cls-4" d="M558.76,349c2.93-12.82,12.33-17.51,24.13-18.73,14.1-1.45,26.24,2.63,32.99,15.74,6.61,12.83,5.77,26.1-2.92,37.89-11.89,16.14-32.55,17.23-49.28,3.15-2.56-12.57-6.2-24.99-4.92-38.05Z"/>
  <path class="cls-3" d="M353.6,337.81c10.67,7.45,15.1,20.97,11.56,35.29-3.06,12.37-13.37,20.82-28.19,23.1-13.63,2.1-24.04-3.32-31.88-16.58,3.74-3.84,3.5-9.15,4.77-13.8,7.24-26.49,17.33-33.1,43.74-28.01Z"/>
  <path class="cls-1" d="M432.56,409.52c-11.24,11.35-8.57,25.43-6.91,38.86,4.95,39.97.19,79.4-6.03,118.73-7.77,49.08-18.95,97.47-30.21,145.84-1.03,4.42-.86,9.11-1.25,13.68-5.99-6.56-2.49-13.98-1.19-20.72,9.53-49.22,20.81-98.1,27.66-147.84,4.82-35.04,7.22-70.17,5.22-105.52-1.26-22.25-2.82-24.8-22.19-38.3,6.19-2.54,12-2.64,17.76-3.06,5.72-.42,11.42-1.1,17.13-1.67Z"/>
  <path class="cls-1" d="M268.58,527.35c-.36,67.42-21.82,127.55-62.52,181.04-2.65-2.2-1.55-4.8-.69-7.3.62-1.8,1.15-3.75,2.23-5.26,35.11-48.91,47.69-105.89,58.81-163.42.34-1.76,1.42-3.38,2.16-5.07Z"/>
  <path class="cls-1" d="M211.16,339.6c5.41,11.68,10.51,23.51,16.29,35,9.86,19.6,23.88,36.3,37.91,52.97,4.59,5.45,10.02,10.61,9.96,18.62-27.86-20.07-45.92-47.24-57.12-79.25-3.11-8.88-7.15-17.6-7.05-27.35Z"/>
  <path class="cls-1" d="M338.27,619.52c7.63,8.73,6.44,20.08,8.61,30.32,5.28,24.9,3.79,51.1,14.41,74.99-1.3,4.72-4.68,5.74-8.88,4.61-4.37-1.18-5.7-4.7-5.85-8.79-.62-17.18-1.36-34.37-1.75-51.56-.38-16.78-2.62-33.27-6.53-49.57Z"/>
  <path class="cls-5" d="M254.6,480.09c-5.73-5.05-7.33-11.33-5.37-18.56,1.33-4.93,3.46-10.74,8.42-11.41,5.02-.68,6.6,5.57,8.08,9.58,1.97,5.34,5.79,7.47,10.65,9.38,4.26,1.67,10.32,1.96,10.35,8.84-8.2,6.96-18.22,3.65-27.44,4.86,0,0,.13.08.13.08-.55-2.77-2.97-2.28-4.83-2.77Z"/>
  <path class="cls-5" d="M644.22,469.18c6.6-1.76,9.53-6.82,12.07-12.61,1.14-2.6,3.6-6.22,5.73-6.42,3.53-.34,5.44,3.72,7.06,6.69,7.67,14.03-.64,27.28-18.99,30.46-6.55-4.56-6.21-11.34-5.88-18.13Z"/>
  <path class="cls-1" d="M353.6,337.81c-26.41-5.09-36.51,1.52-43.74,28.01-1.27,4.64-1.03,9.96-4.77,13.8-8.28-16.64-4.98-34.44,8.13-43.86,12.2-8.76,29.91-7.86,40.39,2.05Z"/>
  <path class="cls-1" d="M683.28,342.16c-3.87,26.47-14.79,49.61-33.94,68.31-11.31,11.05-20.32,11.51-29.75,3.55,30.53-5.94,45.91-27.64,56.66-54.25,2.37-5.86,2.76-12.51,7.02-17.61Z"/>
  <path class="cls-1" d="M626.29,582.94c4.24-.44,4.97,3.23,6.1,5.76,11.53,25.83,22.02,52.15,36.97,76.33.66,1.06.11,2.87.12,4.33-13.51-14.72-22.27-32.27-29.73-50.51-4.84-11.83-9-23.93-13.46-35.91Z"/>
  <path class="cls-1" d="M441.39,325.85c-5.99,13.32-14.28,25.99-11.89,41.69.97,6.34,1.96,12.68,2.94,19.02-19.47-19.59-15.06-49.51,8.96-60.71Z"/>
  <path class="cls-1" d="M551.86,418.67c-13.4,10.74-28.45,20.05-33.22,38.28-1.99,1.09-4.15,2.85-5.3-.83-2.57-8.24,2.3-21.5,9.93-26.17,8.84-5.41,18.14-9.84,28.58-11.28Z"/>
  <path class="cls-4" d="M542.84,498.18c-3.83-7.6-8.43-14.09-17.67-16.07-4.83-1.04-9.99-4.82-11.01-9.53,21.38-11.34,24.25-10.61,26.62,12.12.47,4.52,1.38,8.99,2.06,13.48Z"/>
  <path class="cls-1" d="M690.19,696.95c8.93.69,15.29,9.8,25.08,7.69-3.16,9.43-8.34,11.54-14.97,5.59-4.14-3.71-8.09-7.83-10.12-13.28Z"/>
  <path class="cls-1" d="M517.15,724.67c14.59-1.4,13.17-12.95,14.46-22.77,2.95,4.69,2.99,10.17,3.74,15.33.74,5.12-.95,10.09-6.07,12.54-5.66,2.71-9.33-.43-12.13-5.1Z"/>
  <path class="cls-1" d="M644.22,469.18c-.33,6.79-.67,13.57,5.88,18.13-7.63,3.02-13.79.24-16.03-6.84-2.4-7.57,3.92-10.02,10.15-11.29Z"/>
  <path class="cls-1" d="M557.05,701.67c4.73,8.39,9.47,16.79,14.2,25.18-8.54,6.91-12.49,1.32-13.96-6.1-1.22-6.14-.24-12.71-.24-19.09Z"/>
  <path class="cls-1" d="M558.76,349c-1.28,13.06,2.36,25.48,4.92,38.05-11.09-12.73-12.8-25.97-4.92-38.05Z"/>
  <path class="cls-1" d="M259.3,482.78c9.22-1.21,19.24,2.1,27.44-4.86-4.01,11.78-17.22,14.12-27.44,4.86Z"/>
  <path class="cls-1" d="M682.59,687.82c4.27,1.62,8.06,3.65,7.65,9.17-3.75-2.06-5.73-5.59-7.65-9.17Z"/>
  <path class="cls-1" d="M669.43,669.3c4.88.08,5.04,3.37,4.75,6.97-2.66-1.59-4.47-3.76-4.75-6.97Z"/>
  <path class="cls-2" d="M275.17,445.9c3.73,1.27,2.51,4.39,2.63,7.01-2.44-1.75-3.78-3.91-2.63-7.01Z"/>
  <path class="cls-5" d="M254.6,480.09c1.86.49,4.28,0,4.83,2.77-2.47.58-3.82-.8-4.83-2.77Z"/>
  <path class="cls-3" d="M277.71,452.69c.64.86,1.28,1.72,1.92,2.58-1.34-.35-2.09-1.12-1.92-2.58Z"/>
  <path class="cls-1" d="M444.48,323.78c-1.06.73-2.12,1.45-3.18,2.18.12-2.1,1.68-2.1,3.18-2.18Z"/>
  <path class="cls-1" d="M674.06,676.09c2.19.16,2.16,1.87,2.37,3.4-.79-1.13-1.58-2.27-2.37-3.4Z"/>
  <polygon class="cls-2" points="252.86 478.38 260.19 483.54 254.89 483.54 252.86 478.38"/>
  <path class="cls-2" d="M275.52,449.28c-.27-1.02,1.82-1.7,2.16-.7,1.99,5.87,3.51,7.12,5.31,9.03,3.46,3.66-5.7,1.8-5.7,1.8l-1.76-10.13Z"/>
  <path class="cls-4" d="M528.17,439.21l-15.44,13.66s-.86,4.67,1.74,5.15,5.24-1.46,5.24-1.46l4.19-7.69,4.27-9.66Z"/>
</svg>