<?xml version="1.0" encoding="UTF-8"?>
<svg id="Layer_1" xmlns="http://www.w3.org/2000/svg" viewBox="0 0 3101.42 1080">
  <defs>
    <style>
      .cls-1 {
        fill: #f1f1f1;
      }

      .cls-2 {
        fill: #1f3458;
      }

      .cls-3 {
        fill: #3bc3ef;
      }

      .cls-4 {
        fill: #b56cab;
      }

      .cls-5 {
        fill: #f5999d;
      }
    </style>
  </defs>
  <path class="cls-2" d="M418.28,459.71c-24.84-32.86-42.71-68.89-50.1-109.72-3.96-21.88-6.49-43.79-1.55-65.85,4.13-18.43,13.08-26.81,27.84-26.46,13.34.32,21.94,8.93,25.12,27.74,3.98,23.5,6.34,47.27,13.79,70.1,6.19,18.97,12.87,37.66,26.52,52.84,2.65,2.95,5.47,5.98,8.78,8.04,5.04,3.13,11.26,9.5,16.35,4.94,4.92-4.41-2.83-8.99-5.26-13.15-13.93-23.95-7.69-52.8,15.69-70.74,22.01-16.89,51.16-14.22,70.72,6.48,18.21,19.26,18.76,50.59,1.19,71.56-2.98,3.55-6.27,6.84-10.79,11.74,26.07,3.15,48.83-6.43,74.11-6.21-14.07-18.21-22.86-36.33-17.01-58.59,6.32-24.06,21.26-40.09,45.37-45.01,25.7-5.24,48.68,1.57,64.47,23.95,14.55,20.62,15.67,42.56,3.16,64.81-8.21,14.59-8.07,15.03,8.52,16.42,17.53,1.47,34.62,7.71,54.35,4.6-12.72-12.39-22.47-25.66-23.58-43.15-1.14-17.95,5.03-33.05,18.76-44.71,20.96-17.78,49.49-17.1,70.11,1.36,23.97,21.47,24.3,46.93.51,83.16,18.48-.56,29.42-11.51,38.28-25.04,14.28-21.79,21.12-46.5,26.33-71.64,3.31-15.98,4.87-32.32,8.4-48.24,2.95-13.31,11.13-21.96,26.08-21.61,13.95,1.44,20.38,10.74,24.21,22.92,4.76,15.12,2.15,30.69,2.98,46.04-5.28,51-24.25,96.35-56.31,136.3-4.42,2.84-7.81,5.96-2.94,11.23,10.75,11.67,11.88,25.37,8.47,40.03-4.43,7.14-8.79,14.87-16.81,18.09-11.14,4.47-10.41,11.48-7.5,20.93,4.26,13.83,7.27,28.04,10.82,42.1.66,15.1,5.63,29.37,8.42,44.06,7.16,37.67,21.99,72.06,45.01,102.84,0,0-.05-.07-.05-.07-.42,2.45-.14,4.57,2.63,5.49,0,0-.09-.17-.09-.17-.32,2.46.33,4.5,2.58,5.82,2.14,6.65,5.74,12.74,6.18,20.05.64,10.76-2.74,19.1-12.57,24.11-10.18,5.18-19.82,3.86-28.05-3.93-4.78-4.52-8.79-9.87-13.02-14.95-32.12-38.57-58.42-80.5-74.55-128.38-2.08-6.18-5.37-11.96-8.1-17.92-4.2-2.48-4.16-2.47-5.93,3.05-17.01,52.99-21.79,107.51-20.42,162.81-11.3,26.06-27.87,28.89-46.88,7.37-6.71,10.52-16,16.46-28.63,13.49-13.47-3.17-20.19-12.96-23.48-25.88-10.4-40.9-20.98-81.75-31.61-122.59-1.2-4.62-3.1-9.05-4.68-13.57-.95-3.84-1.61-7.78-2.92-11.48-1.97-5.57-2.03-14.95-8-14.98-6.26-.04-6.46,9.34-8.28,14.94-15.21,46.98-23.88,95.69-37.46,143.11-3.09,10.79-7.24,20.73-16.32,27.92-15.46,6.06-28.57,3.81-38-11.57-7.1,11.35-16.29,18-29.19,13.54-13.7-4.73-17.8-16.67-17.49-29.76,1.21-50.21-3.7-99.58-18.55-147.75-1.26-4.08-2.29-8.22-4.52-16.31-16.37,35.71-26.88,70.34-45.86,100.92-2.25,1.38-3.6,3.2-3.01,6,0,0,.06-.12.06-.12-13.78,17.65-27.57,35.28-41.33,52.95-7.31,9.4-15.71,16.86-28.62,16.56-21.78-9.87-26.11-21.72-15.76-43.18.19-.4.34-.83.6-1.18,44.93-62.73,54.54-137.51,71.87-209.68,1.5-6.25.34-9.37-5.51-12.21-12.79-6.21-19.99-16.88-22.02-30.96.68-9.19.3-19.03,7.36-26.07,7.84-7.82,4.27-12.76-2.89-17.59ZM462.45,483.96c-.2,1.69.67,2.58,2.21,2.98,2.23,1.28,4.33,2.9,6.71,3.78,9.6,3.58,15.34,9.99,15.9,20.51.6,11.36-4.15,21.9-14.27,24.55-19.48,5.08-19.33,19.76-21.08,34.37-.85,1.95-2.1,3.82-2.5,5.85-12.83,66.41-27.36,132.18-67.89,188.64-1.25,1.74-1.86,3.99-2.58,6.07-1,2.89-2.27,5.88.79,8.43,7.7,10.6,14.15,5.08,19.88-1.92,30.52-37.26,59.53-75.41,74.11-122.42,3.5-11.28,7.63-22.62,14.52-32.41,3.94-5.6,8.22-11.98,16.74-10.61,7.95,1.27,11.67,6.92,14.13,14.05,5.72,16.57,9.79,33.55,13.23,50.71,4.51,18.81,7.09,37.85,7.54,57.22.45,19.84,1.31,39.68,2.02,59.52.17,4.72,1.71,8.79,6.75,10.15,4.85,1.31,8.75.13,10.26-5.32,5.52-13.11,1.78-27.02,3.33-40.53,3.03-26.4,5.06-53.31.04-79.49-12.09-63.09-4.97-125.06,7.41-187.02,2.13-10.67,8.04-12.82,17.11-9.25,7.76,3.06,14.98,7.57,24.14,8.56.73-11.19,3.66-24.5-7.64-30.09-17.72-8.76-35.25-19.62-56.52-18.87-12.39.43-24.82-.53-37.22-.44-40.21.27-66.57-19.44-82.15-55.65-13.26-30.83-18.41-63.5-23.25-96.3-.99-6.73-1.79-13.96-10.28-14.82-8.86-.9-11.43,6.65-12.42,12.93-3.51,22.31-3.71,44.62,4.15,66.31-.12,11.25,4.55,21.32,8.14,31.57,12.93,36.95,33.78,68.32,65.93,91.48l-.18-.34c-1.33,3.58.22,6.07,3.04,8.09l-.1-.26ZM919.99,741.85c.91,1.31,1.82,2.62,2.74,3.92,2.37,3.21,4.74,6.41,7.11,9.62,2.22,4.13,4.51,8.21,8.83,10.59l-.06-.06c2.34,6.28,6.9,11.04,11.68,15.33,7.65,6.87,13.63,4.44,17.28-6.44-1.43-12.84-9.38-22.72-15.97-32.91-19.92-30.79-32.89-64.13-40.32-99.95-6.17-29.74-13.45-59.25-20.19-88.87-1.71-7.52-4.5-12.31-13.34-15.16-20.02-6.46-26.24-32.85-9.71-42.62,13.52-8,21.26-20.33,32.09-30.16,45.35-41.17,62.57-94.73,67.19-153.63.83-10.54-.47-21.23-5.16-31.02-2-4.17-5.3-7.25-10.53-6.33-3.54.62-6.82,1.7-7.52,6.12-4.02,25.45-11.1,50.37-13.48,76.12-4.92,5.89-5.37,13.56-8.1,20.33-12.42,30.73-30.17,55.76-65.41,62.63-25.92,3.88-52.45-1.1-78.2,5.37-12.05,1.66-22.79,6.78-32.99,13.02-8.81,5.39-14.43,20.7-11.47,30.21,1.32,4.25,3.82,2.21,6.1.96,5.75-2.1,11.48-4.23,17.25-6.29,12.76-4.54,16.64-2.2,18.84,11.02,2.17,13.03,4.35,26.06,6.82,39.03,6.4,33.61,9.95,67.75,5.51,101.51-6.02,45.76-9.96,91.25-4.08,137.21,0,7.36-1.13,14.95.28,22.03,1.7,8.56,6.26,15.01,16.12,7.04,5.17-5.44,3.88-12.37,4.02-18.8.67-30.83-.52-61.75,5.62-92.28,4.33-21.56,8.72-43.07,16.14-63.84,2.32-6.48,5.68-12.38,13.04-13.59,8.09-1.33,13.16,4.08,17.38,9.93,2.81,3.89,4.92,8.28,7.35,12.44,5.15,13.83,9.96,27.8,15.54,41.45,8.61,21.05,18.72,41.32,34.31,58.31l-.07-.08c.33,3.7,2.42,6.2,5.48,8.04,0,0-.13-.2-.13-.2ZM441.35,518.79l-.15-.09c11.8,10.69,27.05,7.99,31.67-5.61-.04-7.95-7.04-8.28-11.95-10.21-5.62-2.21-10.03-4.66-12.3-10.83-1.71-4.63-3.54-11.84-9.33-11.06-5.73.77-8.19,7.48-9.72,13.17-2.26,8.35-.42,15.6,6.2,21.43,1.16,2.28,2.72,3.87,5.57,3.2ZM651.3,337.67l.09-.13c-27.72,12.93-32.81,47.47-10.33,70.09,18.97,16.32,43.32,17.44,61.41,2.82,16.96-13.7,21.53-37.49,10.78-56.07-11.91-20.57-34.65-28.07-58.28-19.22-1.74.09-3.54.08-3.67,2.51ZM885.54,503c-7.2,1.47-14.49,4.29-11.72,13.03,2.59,8.18,9.7,11.38,18.5,7.9,21.19-3.68,30.78-18.98,21.93-35.17-1.88-3.43-4.07-8.12-8.15-7.73-2.47.24-5.3,4.41-6.62,7.41-2.94,6.68-6.32,12.52-13.93,14.55ZM550.06,351.34c-12.09-11.44-32.54-12.48-46.62-2.36-15.13,10.86-18.94,31.42-9.38,50.63,9.05,15.31,21.07,21.56,36.8,19.14,17.1-2.63,29.01-12.39,32.54-26.67,4.08-16.52-1.03-32.14-13.35-40.73ZM792.57,408.19c19.32,16.26,43.17,14.99,56.89-3.63,10.04-13.62,11.01-28.93,3.37-43.74-7.8-15.13-21.81-19.84-38.09-18.17-13.63,1.4-24.48,6.81-27.86,21.62-9.1,13.95-7.12,29.23,5.68,43.93ZM738.83,506.26c-7.26,1.73-4.64,7.63-4.69,11.97-.46,40.8,5.2,81.05,11.83,121.15,5.29,31.98,11.6,63.79,17.46,95.68,3.97-14.97,1.59-29.84,3.97-44.58,8.29-51.25,12.41-102.59,1.11-154.01-.79-5.19-1.55-10.38-2.38-15.56q-3.96-24.67-27.31-14.65ZM641.21,434.12c-6.59.65-13.17,1.44-19.78,1.93-6.66.49-13.36.6-20.51,3.53,22.36,15.59,24.17,18.53,25.62,44.22,2.31,40.8-.46,81.35-6.02,121.8-7.9,57.41-20.93,113.84-31.92,170.66-1.5,7.77-5.54,16.34,1.37,23.91,9.03,6.31,15.68,4.59,19.55-6.05,3.15-8.67,5.05-17.81,7.43-26.76,11.67-43.92,22.99-87.94,35.18-131.72,3.01-10.81,6.88-23.86,21.33-23.66,13.58.19,17.21,12.64,20.38,23.09,6.79,22.36,12.49,45.06,18.88,67.55,9.01,31.69,14.24,64.42,26.14,95.31,3.23,5.4,7.48,9.02,14,5.89,5.91-2.83,7.86-8.57,7.01-14.48-.86-5.96-.9-12.29-4.31-17.69-6.83-35.97-13.85-71.91-20.43-107.93-10.5-57.48-19.08-115.09-15.85-173.92,1.13-20.69,2.3-40.13,27.82-49.65-37.3-9.82-71.85-3.02-105.88-6.03ZM578.01,738.87c2.34-.51,3.04-.52,3.08-.69,1.83-7.72,3.86-15.4,5.34-23.18,11.83-62.11,24.37-124.14,25.39-187.71.32-19.95-1.01-21.61-19.34-26.69-5.15-1.43-8.11-.86-9.26,5-8.97,45.72-15.68,91.5-9.42,138.34,4.18,31.26,9.61,62.56,4.21,94.93Z"/>
  <g>
    <path class="cls-2" d="M2691.94,666.9c0-45.97.01-91.93-.01-137.9,0-7.35-.16-14.71-.29-22.06-.31-17.52,4.82-33.87,24.62-33.3,18.02.52,21.38,16.36,21.35,32.65-.17,85.09.14,170.18.29,255.27,0,1.05,0,2.1-.03,3.15-.44,13.47-3.81,25.31-18.99,28.73-15.29,3.45-23.04-6.27-29.44-18-27.6-50.57-55.24-101.12-82.94-151.64-4.74-8.65-9.81-17.12-20.59-24.42,0,46.59,0,93.19,0,139.78,0,9.45.64,18.98-.26,28.35-1.42,14.75-6.66,27-24.73,26.26-16.66-.69-20.63-12.71-21.07-26.12-.69-20.99-.36-42.01-.34-63.02.05-64.08.01-128.16.33-192.23.08-15.63-1.51-33.45,19.34-37.98,19.35-4.21,24.13,12,31.13,24.73,31.09,56.51,62.34,112.93,93.52,169.38,2.7-.54,5.4-1.08,8.09-1.63Z"/>
    <path class="cls-2" d="M1760.38,636.28c0-42.03.58-84.08-.21-126.09-.51-27.04,12.46-38.23,38.31-37.87,23.13.32,46.3-.75,69.38.31,45.88,2.09,81.37,30.19,92.61,71.96,11.03,41-6.6,83.25-47.98,106.11-15.93,8.8-15.71,14.65-6.86,27.84,17.52,26.1,33.49,53.25,50.38,79.78,9.17,14.4,10.98,28.16-5.27,37.92-15.82,9.5-25.61-1.49-33.33-13.57-22.02-34.46-44.66-68.6-64.94-104.07-9.21-16.1-21.45-19.09-36.55-16.05-17.59,3.54-9.36,18.7-9.82,28.63-1.18,25.16-.75,50.43-.28,75.64.3,16.21-2.58,31.65-21.59,31.95-20.72.33-24.06-15.87-23.95-33.25.29-43.08.1-86.17.1-129.25ZM1805.56,566.12q0,50.77,34.71,50.8c54.04.05,78.19-15.55,77.54-50.07-.61-32.46-24.74-48.69-73.56-48.28-46.63.39-37.82-5.14-38.68,47.55Z"/>
    <path class="cls-2" d="M2228.93,769.81c1.31,15.41-3.15,24.45-14.56,28.32-11.67,3.95-20.35-1.38-26.44-11.37-1.62-2.66-2.88-5.57-4.04-8.48-6.87-17.15-4.82-45.25-20.73-49.72-26.37-7.4-56.11-2.97-84.43-3.13-10.55-.06-13.19,7.83-15.68,16.51-4.33,15.06-8.57,30.36-15.13,44.49-4.58,9.85-14.21,16.23-26.17,11.75-10.78-4.05-17.19-12.21-15.42-24.44.88-6.13,2.89-12.14,4.74-18.09,26.28-84.97,52.43-169.98,79.11-254.82,4.55-14.47,7.2-32.4,28.99-31.21,19.22,1.05,21.84,16.93,26.19,30.8,26.28,83.87,52.45,167.77,78.61,251.67,2.18,6.98,3.97,14.08,4.99,17.72ZM2083.08,677.56h69.93c-11.65-36.42-22.39-69.98-35.24-110.14-12.97,41.17-23.78,75.51-34.69,110.14Z"/>
    <path class="cls-2" d="M2382.65,469.6c17.04.25,23.43,9.71,27.03,21.22,28.71,91.64,57.03,183.41,85.83,275.03,5.09,16.2-.32,27.84-15.15,32.49-14.44,4.52-26.49-4.65-27.62-18.37-4.69-56.8-41.53-57.15-85.63-56.11-27.08.64-36.06,10.21-42.3,33.4-4.96,18.42-6.36,49.12-35.97,39.85-29.81-9.33-12.69-34.52-6.93-53.23,25.5-82.81,51.69-165.4,77.25-248.19,4.3-13.93,9.44-25.72,23.49-26.08ZM2349.61,679.97c21.61,0,39.25.05,56.89-.02,6.24-.03,13.83.4,10.73-9.45-9.91-31.54-16.82-64.23-33.79-99.07-12.01,38.54-22.19,71.18-33.84,108.55Z"/>
    <path class="cls-2" d="M1280.99,635.16c0-40.94.18-81.88-.07-122.82-.17-26.99,11.35-40.76,39.81-40.16,40.92.86,81.87-.08,122.8.22,16.34.12,33.57,1.87,33.58,23.74.01,22.33-17.47,22.79-33.74,22.91-31.5.23-63.01.73-94.5.1-15.36-.31-23.65,3.47-22.43,20.97,1.23,17.76,1.04,35.72.03,53.51-.82,14.36,5.57,17.8,18.45,17.34,19.93-.71,39.91-.42,59.86-.05,15.26.28,27.46,6.04,27.44,23.38-.02,18.07-13.04,21.84-28.14,21.84-16.81,0-33.77,1.51-50.38-.3-23.24-2.54-27.7,7.67-27.55,28.71.46,64.52-.37,64.52,62.91,64.53,21.01,0,42.02-.18,63.02.12,15.86.23,26.43,7.07,25.7,24.51-.68,16.25-11.64,20.73-25.84,20.73-46.21-.01-92.43-.15-138.64.06-22.68.1-32.2-11.9-32.21-33.34-.02-41.99,0-83.98,0-125.97h-.1Z"/>
    <path class="cls-2" d="M1520.71,633.65c0-40.97.56-81.94-.2-122.9-.49-26.62,11.71-38.6,37.85-38.44,42.04.26,84.08-.06,126.12.12,16.76.07,33.05,2.5,32.67,24.5-.36,20.81-16.74,21.52-31.74,21.72-32.57.44-65.17.79-97.73-.07-16.25-.42-21.31,5.19-21.97,21.69-2.78,69.81-3.36,69.78,66.56,70.5,6.3.07,12.8-.69,18.86.59,12.34,2.61,21.45,9.44,20.86,23.45-.59,13.94-9.39,20.7-22.65,21.04-21.01.53-42.06.91-63.04.17-14.76-.52-19.53,4.94-20.54,19.89-4.91,73.15-5.37,73.11,66.88,73.12,19.97,0,39.94-.23,59.9.18,14.42.3,24.54,6.91,24.84,22.46.3,15.67-9.11,22.59-24.08,22.6-48.34.03-96.69.37-145.02-.27-21.85-.29-27.66-15.26-27.61-34.31.11-42.02.04-84.03.04-126.05Z"/>
    <path class="cls-2" d="M1238.01,605.06c0,37.76,2.59,75.73-.64,113.21-4.31,50.1-46.8,82.03-102.11,81.36-53.25-.64-91.78-34.06-97.21-83.47-1.81-16.52.65-30.87,19.2-33.46,16.85-2.35,22.78,10.23,26.32,24.98,8.72,36.36,27.87,50.29,62.05,46.59,31.49-3.41,47.46-22.42,47.66-58.55.35-62.97.11-125.93.04-188.9-.02-17.56.27-35.79,24.05-36.24,23.62-.45,21.52,17.89,21.52,33.76.01,33.57,0,67.14,0,100.7-.29,0-.59,0-.88,0Z"/>
  </g>
  <path class="cls-5" d="M611.15,816.11c9.08-7.19,13.23-17.12,16.32-27.92,13.58-47.42,22.25-96.13,37.46-143.11,1.81-5.6,2.02-14.99,8.28-14.94,5.97.04,6.03,9.42,8,14.98,1.31,3.71,1.97,7.65,2.92,11.48-11.9-.25-14.24,8.99-16.44,17.46-6.69,25.69-6.62,52.37-10.97,78.42-3,17.94-7.37,35.5-18.6,50.39-6.68,8.86-14.9,15.11-26.97,13.24Z"/>
  <path class="cls-4" d="M819.4,797.78c-1.37-55.29,3.4-109.82,20.42-162.81,1.77-5.52,1.74-5.53,5.93-3.05-5.02,6.22-2.71,13.55-2.52,20.29,1.15,41.2-3.36,81.72-13.76,121.58-2.2,8.42-3.65,17.28-10.07,23.99Z"/>
  <path class="cls-4" d="M970.8,741.86c-23.02-30.77-37.85-65.17-45.01-102.84-2.79-14.68-7.76-28.96-8.42-44.06,17.73,46.8,35.49,93.61,53.12,140.46.72,1.91.24,4.28.31,6.43Z"/>
  <path class="cls-3" d="M384.64,800.58c12.91.3,21.31-7.17,28.62-16.56,13.75-17.67,27.55-35.3,41.33-52.95-6.33,26.74-15.29,52.24-38.73,69.12-9.62,6.93-20.71,9.72-31.22.39Z"/>
  <path class="cls-4" d="M981.65,326.28c-.83-15.36,1.78-30.92-2.98-46.04-3.84-12.18-10.27-21.48-24.21-22.92,10.37-10.33,18.46-9.59,26.25,2.41,7.43,11.45,6.42,24.34,5.98,37.01-.35,10.03-1.09,20.08-5.03,29.54Z"/>
  <path class="cls-5" d="M930.87,513.84c3.4-14.66,2.28-28.36-8.47-40.03-4.86-5.28-1.48-8.39,2.94-11.23,19.91,11.91,22.12,32.35,5.53,51.26Z"/>
  <path class="cls-5" d="M418.28,459.71c7.16,4.84,10.73,9.77,2.89,17.59-7.06,7.05-6.68,16.88-7.36,26.07-3.84-5.34-5.23-19.17-3.14-29.19.99-4.76,4.2-11.96,7.61-14.48Z"/>
  <path class="cls-4" d="M975.87,752.94c-2.25-1.33-2.9-3.36-2.58-5.82,2.45,1.24,2.93,3.35,2.58,5.82Z"/>
  <path class="cls-4" d="M973.38,747.28c-2.77-.93-3.06-3.04-2.63-5.49,3.21.72,2.88,3.13,2.63,5.49Z"/>
  <path class="cls-3" d="M454.52,731.19c-.59-2.79.76-4.62,3.01-6-.09,2.45.13,5.07-3.01,6Z"/>
  <path class="cls-4" d="M778.93,444.69c25.74-6.47,52.27-1.49,78.19-5.37,10.88,9.19,21.28,8.66,34.34-4.1,22.1-21.59,34.71-48.3,39.17-78.86,2.38-25.75,9.46-50.66,13.48-76.12.7-4.42,3.97-5.5,7.52-6.12,5.23-.92,8.53,2.16,10.53,6.33,4.69,9.79,5.99,20.48,5.16,31.02-4.63,58.9-21.84,112.46-67.19,153.63-10.83,9.83-18.57,22.17-32.09,30.16-16.53,9.77-10.32,36.16,9.71,42.62,8.84,2.85,11.63,7.64,13.34,15.16,6.74,29.62,14.02,59.13,20.19,88.87,7.43,35.83,20.4,69.16,40.32,99.95,6.59,10.19,14.54,20.07,15.97,32.9-11.31,2.44-18.64-8.08-28.95-8.88,0,0,.06.06.06.06.48-6.38-3.9-8.71-8.83-10.59-2.37-3.21-4.74-6.41-7.11-9.62-.25-1.77-.21-3.74-2.74-3.92,0,0,.13.2.13.2.34-4.16.15-7.96-5.48-8.04,0,0,.07.08.07.08-.01-1.69.62-3.78-.14-5-17.26-27.91-29.37-58.29-42.68-88.11-1.3-2.92-2.15-7.16-7.04-6.65-2.43-4.16-4.54-8.55-7.35-12.44-4.22-5.85-9.29-11.26-17.38-9.93-7.35,1.21-10.72,7.11-13.04,13.59-7.42,20.76-11.81,42.28-16.14,63.84-6.14,30.53-4.95,61.44-5.62,92.28-.14,6.43,1.15,13.36-4.02,18.8-5.47-9.69-10.93-19.38-16.39-29.07-5.88-45.96-1.94-91.45,4.08-137.21,4.44-33.76.89-67.9-5.51-101.51-2.47-12.97-4.66-26-6.82-39.03-2.2-13.22-6.07-15.57-18.84-11.02-5.76,2.05-11.5,4.19-17.24,6.28,5.51-21.04,22.88-31.79,38.34-44.19Z"/>
  <path class="cls-3" d="M532.37,676.54c-3.45-17.15-7.51-34.13-13.23-50.71-2.46-7.14-6.18-12.78-14.13-14.05-8.52-1.37-12.81,5.01-16.74,10.61-6.89,9.79-11.02,21.13-14.52,32.41-14.58,47-43.59,85.15-74.11,122.42-5.73,7-12.18,12.52-19.88,1.92,46.98-61.75,71.76-131.17,72.17-208.99,1.75-14.61,1.6-29.29,21.08-34.37,10.13-2.64,14.88-13.18,14.27-24.55-.56-10.52-6.3-16.93-15.9-20.51-2.38-.89-4.48-2.5-6.71-3.78-.74-.99-1.48-1.99-2.22-2.98,0,0,.1.26.1.26-.14-3.02,1.26-6.63-3.04-8.09,0,0,.18.34.18.33.07-9.24-6.2-15.2-11.5-21.49-16.19-19.25-32.38-38.52-43.76-61.15-6.68-13.26-12.56-26.92-18.81-40.41-7.86-21.69-7.67-44-4.15-66.31.99-6.28,3.56-13.84,12.42-12.93,8.49.87,9.29,8.09,10.28,14.82,4.84,32.8,9.99,65.48,23.25,96.3,15.58,36.22,41.94,55.92,82.15,55.65,12.41-.08,24.84.88,37.22.44,21.27-.74,38.8,10.11,56.52,18.87,11.31,5.59,8.37,18.9,7.64,30.09-9.16-.99-16.38-5.5-24.14-8.56-9.06-3.57-14.97-1.42-17.11,9.25-12.38,61.96-19.5,123.94-7.41,187.02,5.02,26.19,2.99,53.09-.04,79.49-1.55,13.51,2.19,27.42-3.33,40.53-12.26-27.58-10.54-57.82-16.63-86.56-2.51-11.82-1.13-24.92-9.94-35Z"/>
  <path class="cls-5" d="M738.86,797.93c-11.91-30.89-17.14-63.62-26.14-95.31-6.39-22.49-12.09-45.18-18.88-67.55-3.17-10.45-6.8-22.9-20.38-23.09-14.45-.21-18.32,12.85-21.33,23.66-12.19,43.78-23.51,87.8-35.18,131.72-2.38,8.95-4.27,18.09-7.43,26.76-3.87,10.64-10.52,12.36-19.54,6.05.45-5.27.25-10.69,1.44-15.79,13-55.83,25.9-111.7,34.87-168.35,7.18-45.4,12.68-90.91,6.96-137.05-1.92-15.51-5-31.76,7.97-44.86,34.03,3.01,68.59-3.79,105.88,6.03-25.52,9.52-26.69,28.96-27.82,49.65-3.23,58.83,5.35,116.44,15.85,173.92,6.58,36.02,13.61,71.95,20.43,107.92-1.49,11.34.15,24.68-16.7,26.29Z"/>
  <path class="cls-5" d="M654.97,335.16c23.64-8.85,46.37-1.35,58.28,19.22,10.75,18.58,6.18,42.37-10.78,56.07-18.09,14.62-42.45,13.5-61.42-2.83-1.13-7.32-2.28-14.64-3.39-21.96-2.76-18.13,6.81-32.75,13.73-48.13,0,0-.09.13-.09.13,1.22-.84,2.45-1.68,3.67-2.51Z"/>
  <path class="cls-4" d="M786.89,364.27c3.38-14.8,14.23-20.22,27.86-21.62,16.28-1.67,30.29,3.04,38.09,18.17,7.63,14.81,6.66,30.12-3.37,43.74-13.73,18.63-37.57,19.89-56.89,3.63-2.95-14.51-7.16-28.85-5.68-43.92Z"/>
  <path class="cls-3" d="M550.06,351.34c12.31,8.6,17.43,24.21,13.35,40.73-3.53,14.28-15.44,24.04-32.54,26.67-15.74,2.42-27.75-3.83-36.8-19.14,4.32-4.43,4.04-10.57,5.5-15.93,8.35-30.58,20-38.21,50.5-32.33Z"/>
  <path class="cls-1" d="M641.21,434.12c-12.97,13.1-9.89,29.35-7.97,44.86,5.72,46.14.23,91.65-6.96,137.05-8.96,56.65-21.87,112.51-34.87,168.35-1.19,5.1-.99,10.52-1.44,15.79-6.91-7.57-2.88-16.14-1.37-23.91,11-56.82,24.03-113.24,31.92-170.66,5.57-40.45,8.34-81,6.02-121.8-1.45-25.69-3.26-28.63-25.62-44.22,7.15-2.93,13.85-3.04,20.51-3.53,6.6-.49,13.18-1.27,19.78-1.93Z"/>
  <path class="cls-1" d="M451.92,570.15c-.41,77.82-25.19,147.24-72.17,208.99-3.06-2.54-1.79-5.54-.79-8.43.72-2.08,1.33-4.32,2.58-6.07,40.53-56.46,55.06-122.24,67.89-188.64.39-2.04,1.64-3.91,2.5-5.85Z"/>
  <path class="cls-1" d="M385.63,353.41c6.24,13.48,12.13,27.14,18.81,40.41,11.39,22.62,27.57,41.9,43.76,61.15,5.3,6.29,11.57,12.25,11.5,21.49-32.16-23.16-53.01-54.53-65.93-91.48-3.58-10.25-8.26-20.32-8.14-31.57Z"/>
  <path class="cls-1" d="M532.37,676.54c8.81,10.08,7.43,23.18,9.94,35,6.09,28.74,4.37,58.98,16.63,86.56-1.51,5.45-5.41,6.63-10.26,5.32-5.04-1.36-6.58-5.43-6.75-10.15-.72-19.84-1.57-39.67-2.02-59.52-.44-19.37-3.03-38.41-7.54-57.22Z"/>
  <path class="cls-5" d="M435.78,515.59c-6.62-5.83-8.46-13.08-6.2-21.43,1.54-5.69,4-12.39,9.72-13.17,5.79-.78,7.62,6.43,9.33,11.06,2.27,6.17,6.68,8.62,12.3,10.83,4.91,1.93,11.91,2.26,11.95,10.21-9.47,8.03-21.03,4.21-31.68,5.61,0,0,.15.09.15.09-.63-3.2-3.43-2.64-5.57-3.2Z"/>
  <path class="cls-5" d="M885.54,503c7.61-2.03,11-7.87,13.93-14.55,1.32-3,4.15-7.17,6.62-7.41,4.08-.39,6.28,4.3,8.15,7.73,8.86,16.19-.74,31.49-21.92,35.16-7.56-5.26-7.17-13.1-6.79-20.93Z"/>
  <path class="cls-1" d="M550.06,351.34c-30.49-5.88-42.14,1.76-50.5,32.33-1.46,5.36-1.19,11.5-5.5,15.93-9.56-19.21-5.75-39.76,9.38-50.63,14.08-10.11,34.53-9.07,46.62,2.36Z"/>
  <path class="cls-1" d="M930.64,356.37c-4.46,30.55-17.07,57.27-39.17,78.86-13.06,12.76-23.46,13.29-34.34,4.1,35.24-6.86,52.99-31.9,65.41-62.63,2.73-6.76,3.19-14.44,8.1-20.33Z"/>
  <path class="cls-1" d="M864.85,634.32c4.89-.51,5.74,3.73,7.04,6.65,13.31,29.82,25.42,60.2,42.68,88.11.76,1.23.12,3.32.14,5-15.6-16.99-25.7-37.26-34.32-58.31-5.59-13.65-10.39-27.63-15.54-41.45Z"/>
  <path class="cls-1" d="M651.4,337.54c-6.92,15.38-16.49,30-13.73,48.13,1.11,7.32,2.26,14.64,3.39,21.96-22.48-22.61-17.38-57.16,10.34-70.09Z"/>
  <path class="cls-1" d="M778.93,444.69c-15.47,12.4-32.84,23.15-38.34,44.19-2.3,1.26-4.79,3.29-6.11-.96-2.96-9.51,2.66-24.82,11.47-30.21,10.2-6.24,20.94-11.36,32.99-13.02Z"/>
  <path class="cls-4" d="M768.51,536.47c-4.43-8.77-9.73-16.26-20.39-18.55-5.57-1.2-11.54-5.56-12.71-11,24.68-13.09,27.99-12.24,30.72,13.99.54,5.22,1.59,10.37,2.38,15.56Z"/>
  <path class="cls-1" d="M938.61,765.92c10.31.8,17.65,11.32,28.95,8.88-3.65,10.89-9.63,13.32-17.28,6.45-4.77-4.29-9.33-9.04-11.68-15.33Z"/>
  <path class="cls-1" d="M738.86,797.93c16.84-1.61,15.2-14.95,16.7-26.29,3.41,5.41,3.45,11.74,4.31,17.7.86,5.91-1.1,11.65-7.01,14.48-6.53,3.13-10.77-.49-14-5.89Z"/>
  <path class="cls-1" d="M885.54,503c-.38,7.83-.78,15.67,6.79,20.93-8.8,3.49-15.92.28-18.51-7.9-2.77-8.74,4.52-11.57,11.72-13.03Z"/>
  <path class="cls-1" d="M784.91,771.38c5.46,9.69,10.93,19.38,16.39,29.07-9.86,7.98-14.42,1.52-16.12-7.04-1.41-7.08-.28-14.67-.28-22.03Z"/>
  <path class="cls-1" d="M786.89,364.27c-1.48,15.08,2.72,29.42,5.68,43.92-12.8-14.7-14.78-29.98-5.68-43.92Z"/>
  <path class="cls-1" d="M441.21,518.7c10.64-1.4,22.21,2.42,31.68-5.61-4.63,13.6-19.87,16.3-31.68,5.61Z"/>
  <path class="cls-1" d="M929.84,755.39c4.93,1.87,9.31,4.21,8.83,10.59-4.32-2.38-6.61-6.45-8.83-10.59Z"/>
  <path class="cls-1" d="M914.64,734c5.64.09,5.82,3.89,5.48,8.04-3.06-1.84-5.16-4.34-5.48-8.04Z"/>
  <path class="cls-2" d="M459.52,476.12c4.3,1.47,2.9,5.07,3.04,8.09-2.82-2.02-4.37-4.52-3.04-8.09Z"/>
  <path class="cls-5" d="M435.78,515.59c2.15.57,4.94,0,5.57,3.2-2.85.66-4.41-.92-5.57-3.2Z"/>
  <path class="cls-3" d="M462.45,483.96c.74.99,1.48,1.99,2.22,2.98-1.54-.4-2.41-1.29-2.22-2.98Z"/>
  <path class="cls-1" d="M654.97,335.16c-1.22.84-2.45,1.67-3.67,2.51.13-2.43,1.93-2.42,3.67-2.51Z"/>
  <path class="cls-1" d="M919.99,741.85c2.53.18,2.49,2.15,2.74,3.92-.91-1.31-1.82-2.62-2.74-3.92Z"/>
  <polygon class="cls-2" points="433.77 513.62 442.23 519.57 436.11 519.57 433.77 513.62"/>
  <path class="cls-2" d="M459.93,480.02c-.32-1.18,2.1-1.97,2.49-.81,2.29,6.78,4.05,8.22,6.13,10.42,3.99,4.22-6.58,2.08-6.58,2.08l-2.04-11.69Z"/>
  <path class="cls-4" d="M751.58,468.4l-17.82,15.77s-1,5.39,2.01,5.94c3.01.55,6.04-1.69,6.04-1.69l4.84-8.88,4.93-11.15Z"/>
</svg>